<!DOCTYPE svg PUBLIC "-//W3C//DTD SVG 1.1//EN" "http://www.w3.org/Graphics/SVG/1.1/DTD/svg11.dtd">
<!-- Uploaded to: SVG Repo, www.svgrepo.com, Transformed by: SVG Repo Mixer Tools -->
<svg width="100px" height="100px" viewBox="0 0 36 36" xmlns="http://www.w3.org/2000/svg" xmlns:xlink="http://www.w3.org/1999/xlink" aria-hidden="true" role="img" class="iconify iconify--twemoji" preserveAspectRatio="xMidYMid meet" fill="#000000">
<g id="SVGRepo_bgCarrier" stroke-width="0"/>
<g id="SVGRepo_tracerCarrier" stroke-linecap="round" stroke-linejoin="round"/>
<g id="SVGRepo_iconCarrier">
<path fill="#CC212D" d="M12 5v26h12V5H12zm7.882 15.59L18 19.223l-1.882 1.367l.719-2.212l-1.882-1.367h2.326L18 14.798l.719 2.212h2.326l-1.882 1.367l.719 2.213z"/>
<path fill="#288541" d="M4 5a4 4 0 0 0-4 4v18a4 4 0 0 0 4 4h8V5H4z"/>
<path fill="#FEE833" d="M32 5h-8v26h8a4 4 0 0 0 4-4V9a4 4 0 0 0-4-4zM18.719 17.011L18 14.798l-.719 2.213h-2.326l1.882 1.367l-.719 2.212L18 19.223l1.882 1.367l-.719-2.212l1.882-1.367z"/>
</g>
</svg>